<svg width="11" height="11" viewBox="0 0 11 11" fill="none" xmlns="http://www.w3.org/2000/svg">
    <path
            d="M10.0656 0.50091C9.9067 0.507886 9.76082 0.554014 9.63268 0.604976C9.51429 0.65202 9.08916 0.832313 8.41221 1.11881C7.73526 1.4053 6.83824 1.78516 5.8821 2.19091C3.96983 3.00242 1.82092 3.91527 0.719819 4.38282C0.682006 4.39872 0.528441 4.44615 0.358835 4.57686C0.188836 4.70788 0 4.99221 0 5.30316C0 5.55401 0.124104 5.80948 0.273961 5.95575C0.423818 6.10201 0.575695 6.1704 0.702629 6.22133V6.22025C1.1317 6.39273 2.41304 6.91008 2.71812 7.03327C2.82634 7.36047 3.2909 8.76127 3.40141 9.11353H3.40034C3.47845 9.36285 3.5546 9.52533 3.66033 9.66096C3.7132 9.72878 3.77631 9.79023 3.85372 9.83874C3.88342 9.85736 3.9163 9.8718 3.94933 9.88535C3.95394 9.88733 3.95868 9.88782 3.9633 9.88969L3.95041 9.88644C3.95999 9.89032 3.96858 9.89606 3.97834 9.89945C3.99425 9.90497 4.00527 9.90479 4.02669 9.9092C4.10205 9.9326 4.17728 9.94823 4.24693 9.94823C4.54596 9.94823 4.72932 9.78454 4.72932 9.78454L4.74114 9.77587L6.03251 8.67341L7.61396 10.1499C7.64285 10.191 7.86914 10.5 8.39287 10.5C8.70538 10.5 8.95246 10.3439 9.11054 10.1802C9.26862 10.0165 9.36709 9.84899 9.41136 9.62194L9.41244 9.62085C9.44774 9.43759 10.9617 1.76706 10.9617 1.76706L10.9584 1.78006C11.0056 1.56785 11.0195 1.36263 10.9638 1.1535C10.9081 0.944359 10.7579 0.740264 10.577 0.633161C10.3961 0.526059 10.2246 0.493933 10.0656 0.50091ZM9.84863 1.71611C9.7888 2.01917 8.43264 8.8937 8.34882 9.32491L6.06474 7.19263L4.52089 8.50972L4.94849 6.82297C4.94849 6.82297 7.89827 3.81023 8.07594 3.63484C8.21896 3.49442 8.24891 3.4452 8.24891 3.39635C8.24891 3.33142 8.21578 3.2847 8.13933 3.2847C8.07057 3.2847 7.97718 3.35118 7.92768 3.38226C7.29859 3.77799 4.61915 5.31868 3.3015 6.07499C3.2222 6.04291 2.03168 5.56055 1.39022 5.30208C2.53121 4.81754 4.48706 3.98725 6.30862 3.21424C7.2646 2.80855 8.16135 2.42835 8.83766 2.14213C9.40855 1.90052 9.70634 1.77543 9.84863 1.71611ZM8.33271 9.40405H8.33378L8.33271 9.4073C8.33341 9.40371 8.33218 9.40685 8.33271 9.40405Z"
            fill="white"/>
</svg>
